<svg id="Capa_1" data-name="Capa 1" xmlns="http://www.w3.org/2000/svg" viewBox="0 0 429.05 264.68"><defs><style>.cls-1{fill:#ffb352;}.cls-2{fill:#591a16;}.cls-3{fill:#8cc1cd;}.cls-4{fill:#31140d;}.cls-5{fill:#fff;}</style></defs><path class="cls-1" d="M305.7,36.25A192.46,192.46,0,0,0,293.65,9.08a193,193,0,0,0-22.4,19.53L239.3,214.35c6.08,16.71,5.93,13.14,5.93,13.14s-1.63,3.19,10.93-9.4Z"/><path class="cls-2" d="M295,11.61c-.85-1.64-1.36-2.53-1.36-2.53a193,193,0,0,0-22.4,19.53L239.3,214.35c4.64,12.79,5.65,13.69,5.87,13.41.05.18.44.15,2.22-1.35Z"/><path class="cls-1" d="M272.2,28.14a194.14,194.14,0,0,0-14.75-26,192.82,192.82,0,0,0-20.77,21.55L222.09,212c7.72,16.14,7.24,12.57,7.24,12.57S228,227.9,239.47,214.2Z"/><path class="cls-2" d="M259.06,4.51C258,3,257.45,2.1,257.45,2.1a192.82,192.82,0,0,0-20.77,21.55L222.09,212c5.91,12.34,7,13.15,7.21,12.85.06.18.45.1,2.11-1.55Z"/><path class="cls-1" d="M371.33,62.2a192.88,192.88,0,0,0-6.67-29A192.72,192.72,0,0,0,339,48.16L272.33,224.45c2.79,17.56,3.33,14,3.33,14s-2.22,2.82,12.51-7.15Z"/><path class="cls-2" d="M365.51,36c-.52-1.77-.85-2.74-.85-2.74A192.72,192.72,0,0,0,339,48.16L272.33,224.45c2.13,13.44,2.95,14.51,3.22,14.28,0,.19.4.23,2.43-.9Z"/><path class="cls-1" d="M340,47.87a195.12,195.12,0,0,0-9.54-28.36A192.58,192.58,0,0,0,306,36.72L255.87,218.87c4.52,17.31,4.73,13.72,4.73,13.72s-2,3,11.92-8.26Z"/><path class="cls-2" d="M331.56,22.17c-.7-1.72-1.12-2.66-1.12-2.66A192.58,192.58,0,0,0,306,36.72L255.87,218.87c3.46,13.25,4.39,14.25,4.64,14,0,.18.43.19,2.37-1.12Z"/><path class="cls-1" d="M236.78,24.42A194.48,194.48,0,0,0,218.8,0a193.47,193.47,0,0,0-19.13,23.52l4.92,188.85c9.68,15.28,8.8,11.78,8.8,11.78s-1,3.46,9.36-11.34Z"/><path class="cls-2" d="M220.72,2.23C219.51.78,218.8,0,218.8,0a193.47,193.47,0,0,0-19.13,23.52l4.92,188.85c7.41,11.69,8.62,12.39,8.8,12.07.07.17.48.05,2-1.77Z"/><path class="cls-1" d="M199.9,24.6A196.81,196.81,0,0,0,178.66,2.32a195.18,195.18,0,0,0-17.32,25.45l25.28,186.88c11.66,14.1,10.38,10.73,10.38,10.73s-.71,3.54,8.49-12.28Z"/><path class="cls-2" d="M180.89,4.33c-1.42-1.3-2.23-2-2.23-2a195.18,195.18,0,0,0-17.32,25.45l25.28,186.88c8.92,10.79,10.26,11.35,10.41,11,.1.16.5,0,1.89-2Z"/><path class="cls-1" d="M161.65,27.65a196.12,196.12,0,0,0-23-20,193.79,193.79,0,0,0-14.28,27L168.23,217.9c12.84,12.88,11.24,9.65,11.24,9.65s-.32,3.59,7-13Z"/><path class="cls-2" d="M141,9.37c-1.52-1.16-2.38-1.77-2.38-1.77a193.79,193.79,0,0,0-14.28,27L168.23,217.9c9.83,9.86,11.19,10.28,11.3,9.93.12.15.49,0,1.65-2.13Z"/><path class="cls-1" d="M123.86,34.85A195.83,195.83,0,0,0,98.09,17.61a195.57,195.57,0,0,0-12,28.57l63.7,177.31c14.53,11.3,12.56,8.27,12.56,8.27s0,3.62,5.93-13.81Z"/><path class="cls-2" d="M100.73,19.1c-1.68-1-2.64-1.49-2.64-1.49a195.57,195.57,0,0,0-12,28.57l63.7,177.31c11.12,8.65,12.57,8.9,12.65,8.55.13.13.49-.11,1.48-2.33Z"/><path class="cls-1" d="M86.18,46.5A195.16,195.16,0,0,0,58.73,32.1,195.67,195.67,0,0,0,49.8,61.79L132,231.33c15.64,9.69,13.37,6.88,13.37,6.88s.4,3.59,4.42-14.36Z"/><rect class="cls-2" x="251.68" y="127.41" width="209.91" height="57.17" transform="translate(57.91 405.58) rotate(-63.5)"/><path class="cls-3" d="M381.35,86.53a6,6,0,1,1-2.7-8.06A6,6,0,0,1,381.35,86.53Z"/><path class="cls-3" d="M371.36,106.57a6,6,0,1,1-2.7-8.06A6,6,0,0,1,371.36,106.57Z"/><path class="cls-3" d="M361.36,126.62a6,6,0,1,1-2.7-8.06A6,6,0,0,1,361.36,126.62Z"/><path class="cls-3" d="M351.37,146.66a6,6,0,1,1-2.7-8A6,6,0,0,1,351.37,146.66Z"/><path class="cls-3" d="M341.38,166.71a6,6,0,1,1-2.7-8.06A6,6,0,0,1,341.38,166.71Z"/><path class="cls-3" d="M331.38,186.76a6,6,0,1,1-2.69-8.06A6,6,0,0,1,331.38,186.76Z"/><path class="cls-3" d="M321.39,206.81a6,6,0,1,1-2.7-8.06A6,6,0,0,1,321.39,206.81Z"/><path class="cls-3" d="M387.45,103a6,6,0,1,1-2.7-8.06A6,6,0,0,1,387.45,103Z"/><path class="cls-3" d="M377.46,123a6,6,0,1,1-2.7-8.06A6,6,0,0,1,377.46,123Z"/><path class="cls-3" d="M367.47,143.07a6,6,0,1,1-2.7-8.06A6,6,0,0,1,367.47,143.07Z"/><path class="cls-3" d="M357.47,163.12a6,6,0,1,1-2.7-8.07A6,6,0,0,1,357.47,163.12Z"/><path class="cls-3" d="M347.48,183.17a6,6,0,1,1-2.7-8.07A6,6,0,0,1,347.48,183.17Z"/><path class="cls-3" d="M337.49,203.21a6,6,0,1,1-2.7-8.06A6,6,0,0,1,337.49,203.21Z"/><path class="cls-3" d="M327.49,223.26a6,6,0,1,1-2.7-8.06A6,6,0,0,1,327.49,223.26Z"/><path class="cls-2" d="M146.69,236,61.51,33.29c-1.78-.79-2.78-1.19-2.78-1.19a170.4,170.4,0,0,0-5.89,17.69L42.21,54.88l91,189.56,12.39-5.95v0C145.75,238.4,146.09,237.89,146.69,236Z"/><rect class="cls-4" x="43.18" y="54.56" width="46.99" height="210.3" transform="translate(-62.55 44.58) rotate(-25.64)"/><polygon class="cls-5" points="94.08 257.08 130.83 239.45 44.59 59.75 7.84 77.39 94.08 257.08"/><path d="M41.21,112.64l-2-4L62.46,97.34l2,4Zm28.89.47-2-4L44.93,120.32l2,4Zm-2.84-5.86-2-4L42.09,114.45l2,4Z"/><path d="M61.75,155l-2-4L83,139.73l2,4Zm28.9.48-2-4.05L65.47,162.71l2,4Zm-2.84-5.87-2-4L62.63,156.83l2,4Z"/><path d="M32.21,94.09l-2-4L53.47,78.79l2,4Zm26.06-5.4-2-4L33.09,95.9l2,4Z"/><path d="M52.93,136.83l-2-4.05,23.22-11.26,2,4ZM79,131.43l-2-4L53.81,138.64l2,4.05Z"/><path d="M82.3,197.4l-2-4,23.22-11.26,2,4.05Zm28.89.47-2-4L86,205.08l2,4ZM108.35,192l-2-4L83.18,199.22l2,4Z"/><path d="M73.47,179.21l-2-4.05,23.21-11.25,2,4.05Zm26.06-5.4-2-4L74.36,181l2,4Z"/><path d="M94,221.59l-2-4.05,23.22-11.26,2,4.06Zm26.06-5.4-2-4L94.9,223.4l2,4Z"/></svg>