<svg id="Capa_1" data-name="Capa 1" xmlns="http://www.w3.org/2000/svg" viewBox="0 0 58.51 39.04"><defs><style>.cls-1{fill:#64d6e8;}.cls-2{fill:#e2db5d;}</style></defs><path class="cls-1" d="M53.77,9.49h-49A4.75,4.75,0,0,1,0,4.74H0A4.74,4.74,0,0,1,4.74,0h49a4.74,4.74,0,0,1,4.74,4.74h0A4.75,4.75,0,0,1,53.77,9.49Z"/><path class="cls-2" d="M53.77,23.83H27.27a4.74,4.74,0,0,1-4.74-4.74h0a4.74,4.74,0,0,1,4.74-4.74h26.5a4.74,4.74,0,0,1,4.74,4.74h0A4.74,4.74,0,0,1,53.77,23.83Z"/><path class="cls-1" d="M53.77,39h-49A4.74,4.74,0,0,1,0,34.3H0a4.74,4.74,0,0,1,4.74-4.74h49a4.74,4.74,0,0,1,4.74,4.74h0A4.74,4.74,0,0,1,53.77,39Z"/></svg>