<?xml version="1.0" encoding="UTF-8"?><svg id="Capa_1" xmlns="http://www.w3.org/2000/svg" viewBox="0 0 852.39 910.43"><defs><style>.cls-1{fill:#fff;}.cls-2{fill:#ffb152;}.cls-3{fill:#98cdd9;}.cls-4{fill:#8abfcb;}.cls-5{fill:#31140d;}.cls-6{fill:#591a16;}.cls-7{fill:none;stroke:#ffbf52;stroke-miterlimit:10;stroke-width:2px;}</style></defs><rect class="cls-7" x="1" y="67.33" width="850.39" height="841.89"/><path class="cls-3" d="M445.76,907.72c1.13-1.21,1.84-2.81,1.9-4.6,.06-2.1-.81-4.12-2.41-5.49-2.13-1.82-6.49-1.85-7.2,1.37-.34,1.53,.5,3.18,2.33,2.75,.9-.22,1.49-1.78,2.47-1.2,2.06,1.21,.52,5.14-1.32,5.73-5.15,1.65-6.9-5.31-7.26-8.98-.3-3.05-.25-6.16,.06-9.21,1.09-10.7,9.3-23.22,21.06-23.27,14.08-.06,17.87,14.92,12.37,21.72-3.1,3.83-10.02,5.61-14.2,2.33-2.15-1.69-3.56-5.28-2.92-7.93,.55-2.26,2.51-5.19,5.5-4.42,.79,.2,1.71,1.07,1.74,1.93,0,.16-.02,.33-.09,.48-.31,.72-1.12,.85-1.64,1.35-.93,.91-.4,2.97,.72,3.53,1.33,.66,3.13,.05,4.03-1.04,1.4-1.69,1.25-4.4,.16-6.2-4.24-6.97-13.65-1.44-13.43,5.67,.14,4.46,2.37,9.3,6.86,10.91,8.37,2.99,18.15-.9,19.36-10.24,.76-5.86-.19-11.41-4.38-16.11-3.41-3.82-7.61-5.76-12.6-5.98-13.13-.58-22.08,10.75-25.17,22.26-1.37,5.12-1.68,10.61-.89,15.92,.35,2.38,1.32,5.12,2.9,7.28-2.48-.16-4.97-.25-7.47-.25s-5,.09-7.48,.25c1.58-2.16,2.54-4.9,2.9-7.28,.79-5.31,.48-10.79-.89-15.92-3.09-11.51-12.04-22.84-25.17-22.26-4.99,.22-9.19,2.16-12.6,5.98-4.19,4.69-5.14,10.24-4.38,16.11,1.22,9.34,10.99,13.24,19.36,10.24,4.48-1.6,6.72-6.45,6.86-10.91,.22-7.11-9.19-12.64-13.43-5.67-1.09,1.79-1.24,4.51,.16,6.2,.9,1.09,2.7,1.7,4.03,1.04,1.12-.56,1.65-2.62,.72-3.53-.51-.5-1.33-.63-1.64-1.35-.07-.16-.1-.32-.09-.48,.02-.86,.94-1.73,1.74-1.93,2.99-.77,4.95,2.15,5.5,4.42,.65,2.65-.77,6.24-2.92,7.93-4.18,3.28-11.09,1.5-14.2-2.33-5.51-6.8-1.72-21.77,12.37-21.72,11.76,.05,19.98,12.57,21.06,23.27,.31,3.05,.36,6.15,.06,9.21-.36,3.68-2.1,10.63-7.26,8.98-1.84-.59-3.38-4.52-1.32-5.73,.98-.58,1.57,.98,2.47,1.2,1.83,.44,2.67-1.22,2.33-2.75-.72-3.22-5.07-3.18-7.2-1.37-1.6,1.36-2.48,3.39-2.41,5.49,.05,1.79,.77,3.39,1.9,4.6h39.12Zm-19.56,2.71"/><g><g><path class="cls-2" d="M470.79,17.73c-2.97-8.17-5.89-13.29-5.89-13.29,0,0-4.81,3.4-10.95,9.55l-15.62,90.83c2.97,8.17,2.9,6.42,2.9,6.42,0,0-.8,1.56,5.34-4.59l24.23-88.92Z"/><path class="cls-6" d="M465.56,5.68c-.42-.8-.67-1.24-.67-1.24,0,0-4.81,3.4-10.95,9.55l-15.62,90.83c2.27,6.26,2.76,6.69,2.87,6.56,.02,.09,.21,.07,1.08-.66L465.56,5.68Z"/></g><path class="cls-2" d="M454.4,13.76c-3.78-7.89-7.21-12.73-7.21-12.73,0,0-4.54,3.83-10.16,10.54l-7.13,92.11c3.78,7.89,3.54,6.15,3.54,6.15,0,0-.66,1.63,4.96-5.07l16.01-90.98Z"/><path class="cls-6" d="M447.98,2.2c-.5-.76-.79-1.18-.79-1.18,0,0-4.54,3.83-10.16,10.54l-7.13,92.11c2.89,6.04,3.43,6.43,3.52,6.29,.03,.09,.22,.05,1.03-.76L447.98,2.2Z"/><g><path class="cls-2" d="M502.88,30.42c-1.36-8.59-3.26-14.17-3.26-14.17,0,0-5.37,2.42-12.57,7.3l-32.58,86.21c1.36,8.59,1.63,6.86,1.63,6.86,0,0-1.08,1.38,6.12-3.5l40.67-82.71Z"/><path class="cls-6" d="M500.03,17.59c-.26-.87-.42-1.34-.42-1.34,0,0-5.37,2.42-12.57,7.3l-32.58,86.21c1.04,6.57,1.44,7.1,1.57,6.98,0,.09,.2,.11,1.19-.44l42.8-98.71Z"/></g><path class="cls-2" d="M487.55,23.41c-2.21-8.46-4.67-13.87-4.67-13.87,0,0-5.18,2.9-11.97,8.42l-24.49,89.08c2.21,8.46,2.31,6.71,2.31,6.71,0,0-.96,1.48,5.83-4.04l32.99-86.29Z"/><path class="cls-6" d="M483.43,10.84c-.34-.84-.55-1.3-.55-1.3,0,0-5.18,2.9-11.97,8.42l-24.49,89.08c1.69,6.47,2.14,6.96,2.27,6.84,.01,.09,.21,.09,1.16-.55L483.43,10.84Z"/><path class="cls-2" d="M437.08,11.94c-4.74-7.47-8.79-11.94-8.79-11.94,0,0-4.27,4.27-9.36,11.5l2.41,92.35c4.73,7.47,4.31,5.76,4.31,5.76,0,0-.51,1.69,4.58-5.55l6.86-92.13Z"/><path class="cls-6" d="M429.23,1.09c-.59-.71-.94-1.09-.94-1.09,0,0-4.27,4.27-9.36,11.5l2.41,92.35c3.62,5.72,4.22,6.06,4.3,5.9,.04,.08,.24,.03,.98-.86l2.6-107.8Z"/><path class="cls-2" d="M419.05,12.03c-5.71-6.9-10.39-10.89-10.39-10.89,0,0-3.97,4.7-8.47,12.44l12.36,91.39c5.7,6.9,5.07,5.25,5.07,5.25,0,0-.35,1.73,4.15-6.01l-2.73-92.18Z"/><path class="cls-6" d="M409.75,2.12c-.69-.64-1.09-.98-1.09-.98,0,0-3.97,4.7-8.47,12.44l12.36,91.39c4.36,5.28,5.02,5.55,5.09,5.39,.05,.08,.25,0,.93-.96L409.75,2.12Z"/><path class="cls-2" d="M400.34,13.52c-6.28-6.3-11.26-9.81-11.26-9.81,0,0-3.39,5.07-6.98,13.19l21.46,89.65c6.28,6.3,5.5,4.72,5.5,4.72,0,0-.16,1.76,3.43-6.38l-12.15-91.37Z"/><path class="cls-6" d="M390.25,4.58c-.74-.57-1.16-.87-1.16-.87,0,0-3.39,5.07-6.98,13.19l21.46,89.65c4.8,4.82,5.47,5.03,5.52,4.86,.06,.07,.24-.02,.81-1.04L390.25,4.58Z"/><path class="cls-2" d="M381.86,17.04c-7.11-5.53-12.6-8.43-12.6-8.43,0,0-2.99,5.45-5.88,13.97l31.15,86.71c7.1,5.52,6.14,4.04,6.14,4.04,0,0,.01,1.77,2.9-6.76l-21.71-89.54Z"/><path class="cls-6" d="M370.55,9.34c-.82-.48-1.29-.73-1.29-.73,0,0-2.99,5.45-5.88,13.97l31.15,86.71c5.44,4.23,6.15,4.35,6.19,4.18,.06,.06,.24-.06,.72-1.14l-30.89-102.99Z"/><path class="cls-2" d="M363.43,22.74c-7.65-4.74-13.42-7.04-13.42-7.04,0,0-2.4,5.73-4.37,14.52l40.19,82.91c7.65,4.74,6.54,3.37,6.54,3.37,0,0,.2,1.76,2.16-7.02l-31.1-86.73Z"/><g><rect class="cls-6" x="444.37" y="62.31" width="102.65" height="27.96" transform="translate(206.27 485.88) rotate(-63.5)"/><g><path class="cls-4" d="M507.78,42.31c-.72,1.45-2.49,2.04-3.94,1.32-1.45-.72-2.04-2.49-1.32-3.94s2.49-2.04,3.94-1.32c1.45,.73,2.04,2.49,1.32,3.94Z"/><path class="cls-4" d="M502.89,52.12c-.72,1.45-2.49,2.04-3.94,1.32-1.45-.72-2.04-2.49-1.32-3.94,.72-1.45,2.49-2.04,3.94-1.32s2.04,2.49,1.32,3.94Z"/><path class="cls-4" d="M498,61.92c-.72,1.45-2.49,2.04-3.94,1.32-1.45-.72-2.04-2.49-1.32-3.94s2.49-2.04,3.94-1.32,2.04,2.49,1.32,3.94Z"/><path class="cls-4" d="M493.12,71.72c-.73,1.45-2.49,2.05-3.94,1.32-1.45-.72-2.04-2.49-1.32-3.94s2.49-2.04,3.94-1.32c1.45,.73,2.04,2.49,1.32,3.94Z"/><path class="cls-4" d="M488.23,81.52c-.73,1.46-2.49,2.05-3.94,1.32-1.45-.72-2.04-2.49-1.32-3.94,.72-1.45,2.49-2.04,3.94-1.32,1.45,.73,2.04,2.49,1.32,3.94Z"/><path class="cls-4" d="M483.34,91.33c-.72,1.45-2.49,2.04-3.94,1.32-1.45-.72-2.04-2.49-1.32-3.94,.72-1.45,2.49-2.04,3.94-1.32s2.04,2.49,1.32,3.94Z"/><path class="cls-4" d="M478.46,101.13c-.72,1.45-2.49,2.04-3.94,1.32s-2.04-2.49-1.32-3.94,2.49-2.04,3.94-1.32,2.04,2.49,1.32,3.94Z"/><path class="cls-4" d="M510.76,50.36c-.73,1.46-2.49,2.04-3.94,1.32s-2.04-2.49-1.32-3.94c.72-1.45,2.49-2.04,3.94-1.32,1.45,.72,2.04,2.49,1.32,3.94Z"/><path class="cls-4" d="M505.87,60.16c-.72,1.45-2.49,2.04-3.94,1.32s-2.04-2.49-1.32-3.94,2.49-2.04,3.94-1.32,2.05,2.49,1.32,3.94Z"/><path class="cls-4" d="M500.99,69.97c-.72,1.45-2.49,2.04-3.94,1.32s-2.04-2.49-1.32-3.94c.72-1.45,2.49-2.04,3.94-1.32s2.04,2.49,1.32,3.94Z"/><path class="cls-4" d="M496.1,79.77c-.72,1.45-2.49,2.04-3.94,1.32s-2.04-2.49-1.32-3.94,2.49-2.04,3.94-1.32c1.45,.72,2.04,2.49,1.32,3.94Z"/><path class="cls-4" d="M491.21,89.57c-.72,1.45-2.49,2.04-3.94,1.32s-2.04-2.49-1.32-3.94c.73-1.46,2.49-2.05,3.94-1.32s2.04,2.49,1.32,3.95Z"/><path class="cls-4" d="M486.33,99.37c-.73,1.45-2.49,2.04-3.94,1.32s-2.04-2.49-1.32-3.94c.72-1.45,2.49-2.04,3.94-1.32s2.04,2.49,1.32,3.94Z"/><path class="cls-4" d="M481.44,109.18c-.72,1.45-2.49,2.04-3.94,1.32-1.45-.72-2.04-2.49-1.32-3.94,.73-1.46,2.49-2.04,3.94-1.32s2.05,2.49,1.32,3.94Z"/></g></g><path class="cls-6" d="M393.02,115.41l-41.65-99.13c-.87-.39-1.36-.58-1.36-.58,0,0-1.36,3.27-2.88,8.65l-5.2,2.49,44.49,92.7,6.06-2.91h0c.09-.05,.25-.3,.55-1.21Z"/><rect class="cls-5" x="342.41" y="26.68" width="22.98" height="102.84" transform="translate(1.06 160.84) rotate(-25.64)"/><rect class="cls-1" x="345.23" y="28.73" width="19.93" height="97.47" transform="translate(1.45 161.29) rotate(-25.63)"/><g><path d="M341.45,55.09l-.96-1.98,11.35-5.5,.96,1.98-11.35,5.5Zm14.13,.23l-.96-1.97-11.35,5.5,.96,1.98,11.35-5.5Zm-1.39-2.87l-.96-1.98-11.35,5.5,.96,1.98,11.35-5.5Z"/><path d="M351.49,75.8l-.96-1.97,11.35-5.5,.96,1.97-11.35,5.5Zm14.13,.23l-.96-1.98-11.35,5.51,.96,1.97,11.35-5.5Zm-1.39-2.87l-.96-1.97-11.35,5.5,.96,1.98,11.35-5.5Z"/><path d="M337.04,46.01l-.96-1.98,11.35-5.5,.96,1.98-11.35,5.5Zm12.74-2.64l-.96-1.98-11.35,5.5,.96,1.97,11.35-5.5Z"/><path d="M347.18,66.91l-.96-1.98,11.35-5.51,.96,1.98-11.35,5.51Zm12.74-2.64l-.96-1.98-11.35,5.5,.96,1.98,11.35-5.5Z"/><path d="M361.54,96.53l-.96-1.98,11.35-5.5,.96,1.98-11.35,5.5Zm14.13,.23l-.96-1.98-11.35,5.5,.96,1.97,11.35-5.5Zm-1.39-2.87l-.96-1.98-11.35,5.5,.96,1.98,11.35-5.51Z"/><path d="M357.22,87.63l-.96-1.98,11.35-5.5,.95,1.98-11.35,5.5Zm12.74-2.64l-.96-1.98-11.35,5.5,.96,1.98,11.35-5.5Z"/><path d="M367.27,108.36l-.96-1.98,11.35-5.51,.96,1.98-11.35,5.5Zm12.74-2.64l-.96-1.98-11.35,5.5,.96,1.98,11.35-5.51Z"/></g></g></svg>