<svg id="Capa_1" data-name="Capa 1" xmlns="http://www.w3.org/2000/svg" viewBox="0 0 130.05 67.4"><defs><style>.cls-1{fill:#9acfdb;}</style></defs><path class="cls-1" d="M91.59,63.71a9.56,9.56,0,0,0,2.58-6.25A9.37,9.37,0,0,0,90.89,50c-2.9-2.47-8.81-2.51-9.78,1.85-.46,2.08.68,4.33,3.16,3.74,1.22-.3,2-2.42,3.35-1.63,2.81,1.64.7,7-1.79,7.78-7,2.24-9.37-7.21-9.86-12.2a62.91,62.91,0,0,1,.08-12.5C77.52,22.51,88.68,5.5,104.66,5.44c19.14-.08,24.29,20.27,16.8,29.5-4.21,5.2-13.61,7.62-19.28,3.17-2.92-2.29-4.84-7.18-4-10.77.75-3.08,3.41-7,7.47-6A3.28,3.28,0,0,1,108,24a1.49,1.49,0,0,1-.12.66c-.42,1-1.53,1.15-2.23,1.84-1.26,1.24-.54,4,1,4.79a4.81,4.81,0,0,0,5.47-1.4c1.9-2.3,1.7-6,.22-8.42-5.76-9.47-18.54-1.95-18.25,7.7.19,6.05,3.23,12.64,9.32,14.82C114.79,48,128.07,42.73,129.72,30c1-8-.25-15.5-6-21.88A23.47,23.47,0,0,0,106.65,0c-17.83-.79-30,14.6-34.19,30.24A53.76,53.76,0,0,0,71.24,51.9a23.15,23.15,0,0,0,3.94,9.89c-3.37-.21-6.75-.33-10.16-.33s-6.79.12-10.15.33A23.13,23.13,0,0,0,58.8,51.9a53.58,53.58,0,0,0-1.21-21.63C53.4,14.63,41.23-.76,23.39,0A23.45,23.45,0,0,0,6.28,8.15C.58,14.53-.71,22.07.33,30,2,42.73,15.26,48,26.63,44c6.09-2.18,9.13-8.77,9.32-14.82.29-9.65-12.49-17.17-18.25-7.7-1.49,2.43-1.68,6.12.21,8.42a4.82,4.82,0,0,0,5.47,1.4c1.52-.76,2.24-3.55,1-4.79-.7-.69-1.82-.86-2.23-1.84A1.49,1.49,0,0,1,22,24a3.29,3.29,0,0,1,2.35-2.62c4.06-1.05,6.72,2.92,7.47,6,.88,3.59-1,8.48-4,10.77-5.67,4.45-15.07,2-19.29-3.17C1.1,25.71,6.25,5.36,25.38,5.44,41.37,5.5,52.52,22.51,54,37.05a63.67,63.67,0,0,1,.08,12.5c-.49,5-2.86,14.44-9.86,12.2-2.5-.8-4.6-6.14-1.8-7.78,1.34-.79,2.13,1.33,3.36,1.63,2.48.59,3.62-1.66,3.16-3.74-1-4.36-6.89-4.32-9.79-1.85a9.39,9.39,0,0,0-3.27,7.45,9.55,9.55,0,0,0,2.57,6.25ZM65,67.4"/></svg>