<?xml version="1.0" encoding="utf-8"?>
<!-- Generator: Adobe Illustrator 26.3.1, SVG Export Plug-In . SVG Version: 6.00 Build 0)  -->
<svg version="1.1" id="Capa_1" xmlns="http://www.w3.org/2000/svg" xmlns:xlink="http://www.w3.org/1999/xlink" x="0px" y="0px"
	 viewBox="0 0 696.4 368.65" style="enable-background:new 0 0 696.4 368.65;" xml:space="preserve">
<style type="text/css">
	.st0{fill:#C4E4E8;}
	.st1{fill:#FFBF52;}
	.st2{fill:#0B5492;}
	.st3{fill:#A22420;}
	.st4{opacity:0.54;}
	.st5{opacity:0.55;}
	.st6{fill:#085492;}
	.st7{fill:none;stroke:#1D1D1B;stroke-width:0.75;stroke-miterlimit:10;}
	.st8{fill:none;stroke:#1D1D1B;stroke-miterlimit:10;}
	.st9{fill:#CACCCC;}
	.st10{fill:#FFFFFF;}
	.st11{fill:none;stroke:#FFFFFF;stroke-width:1.434;stroke-miterlimit:10;}
	.st12{fill:none;stroke:#FFFFFF;stroke-width:0.75;stroke-miterlimit:10;}
	.st13{fill:#0C729A;}
	.st14{fill:#89BECA;}
	.st15{fill:#045582;}
	.st16{fill:#F7AF55;}
	.st17{fill:#B7221C;}
	.st18{fill:none;stroke:#000000;stroke-width:1.1376;stroke-miterlimit:10;}
	.st19{fill:#C6DBDD;}
	.st20{fill:#ECDECF;}
	.st21{fill:#99C8D0;}
	.st22{fill:#FFB152;}
	.st23{fill:none;stroke:#8ABFCB;stroke-width:2.2751;stroke-miterlimit:10;}
	.st24{fill:#085482;stroke:#085482;stroke-width:3.4127;stroke-miterlimit:10;}
	.st25{fill:#B8201B;}
	.st26{fill:#085482;}
	.st27{fill:#106624;}
	.st28{fill:#ECB97D;}
	.st29{fill:none;}
	.st30{fill:#EA9B34;}
	.st31{fill:#085482;stroke:#085482;stroke-width:2;stroke-miterlimit:10;}
	.st32{fill:#98CDD9;}
	.st33{fill:none;stroke:#FFBF52;stroke-width:2;stroke-miterlimit:10;}
	.st34{fill:#591A16;}
	.st35{fill:#8ABFCB;}
	.st36{fill:#31140D;}
	.st37{fill:none;stroke:#FFFFFF;stroke-width:2;stroke-miterlimit:10;}
	.st38{fill:none;stroke:#FFFFFF;stroke-width:2.1806;stroke-miterlimit:10;}
	.st39{fill-rule:evenodd;clip-rule:evenodd;fill:#085492;}
	.st40{clip-path:url(#SVGID_00000090268150245644800550000012304118709689379490_);}
	.st41{opacity:0.13;}
	.st42{fill:#E7E1A5;}
	.st43{fill:#D9EDEE;}
	.st44{fill:none;stroke:#B7221C;stroke-width:1.7777;stroke-miterlimit:10;}
	.st45{fill:none;stroke:#045582;stroke-width:1.1049;stroke-miterlimit:10;}
	.st46{fill:none;stroke:#045582;stroke-width:1.1348;stroke-miterlimit:10;}
	.st47{fill:none;stroke:#B7221C;stroke-width:1.6307;stroke-miterlimit:10;}
	.st48{fill:none;stroke:#045582;stroke-width:1.1008;stroke-miterlimit:10;}
	.st49{fill:#AF2420;}
	.st50{opacity:0.29;}
	.st51{fill:#085482;stroke:#085482;stroke-width:0.9789;stroke-miterlimit:10;}
	.st52{fill:#FFB352;}
	.st53{fill:#A02420;}
	.st54{fill:none;stroke:#085492;stroke-width:2;stroke-miterlimit:10;}
	.st55{fill:none;stroke:#B7221C;stroke-width:2;stroke-miterlimit:10;}
	.st56{fill:#6FD4EF;}
	.st57{fill:#F4E46E;}
	.st58{font-family:'LEDERSONRegular';}
	.st59{font-size:185.2589px;}
	.st60{letter-spacing:1;}
	.st61{font-family:'Quando-Regular';}
	.st62{font-size:126.2748px;}
	.st63{fill:none;stroke:#A22420;stroke-width:3;stroke-linecap:round;stroke-miterlimit:10;}
</style>
<g>
	<g>
		<path class="st27" d="M201.95,260.77c-7.76-0.93-15.34-2.35-22.66-4.88c-2.34-0.81-4.76-1.8-6.6-3.53
			c-2.26-2.13-3.06-4.06-2.36-5.75c1.82-4.44,13.39-5.11,16.39-5.05c17.58,0.38,35.28,2.1,52.61,5.11
			c5.18,0.9,10.96,2.24,14.06,6.74c0.38,0.55,0.81,1.28,0.79,2.14c-0.02,1.34-1.05,2.46-3.05,3.32c-10.39,4.47-22.11,4.08-34.2,3.23
			C211.88,261.75,206.88,261.36,201.95,260.77z M186.71,242.13l-0.01,0.56c-4.53-0.1-13.99,1.11-15.32,4.34
			c-0.5,1.21,0.21,2.73,2.09,4.5c1.59,1.5,3.63,2.4,6.19,3.28c11.83,4.1,24.41,5.25,37.34,6.16c11.95,0.84,23.51,1.23,33.67-3.14
			c1.56-0.67,2.36-1.45,2.37-2.3c0.01-0.42-0.18-0.88-0.59-1.49c-2.85-4.14-8.37-5.41-13.32-6.27c-17.27-3-34.92-4.71-52.44-5.09
			L186.71,242.13z"/>
		<path class="st27" d="M238.55,280.8c-0.21-0.02-0.42-0.1-0.61-0.26l0.73-0.86c0.01,0,0.1,0.02,0.37-0.04l6.17-1.25
			c1.46-0.3,3.27-0.66,4.41-1.8c1.08-1.08,1.45-2.7,1.76-4.4c0.61-3.27,0.97-7.95,1.3-12.08c0.13-1.68,0.26-3.26,0.39-4.62
			l1.12,0.11c-0.13,1.35-0.25,2.93-0.39,4.6c-0.33,4.16-0.7,8.87-1.31,12.2c-0.33,1.81-0.77,3.68-2.07,4.99
			c-1.38,1.38-3.38,1.79-4.98,2.11l-6.17,1.25C239.09,280.78,238.83,280.84,238.55,280.8z"/>
		<path class="st27" d="M186.97,275.44c-3.68-0.44-13.1-2.54-15.31-3.93c-0.71-0.45-1.51-0.95-2.03-1.76
			c-0.66-1.03-0.69-2.26-0.66-3.44c0.1-4.21,0.84-12.46,1.63-16.81l1.11,0.2c-0.79,4.29-1.52,12.47-1.62,16.63
			c-0.02,1.05-0.01,2.05,0.48,2.81c0.38,0.6,1.04,1.01,1.68,1.42c1.94,1.22,10.92,3.3,14.84,3.77L186.97,275.44z"/>
		<path class="st27" d="M201.48,368.24c-9.06-1.08-18.39-4.31-28.31-9.72l-0.29-0.16l-1.49-87.32l1.13-0.02l1.48,86.66
			c19.57,10.61,36.12,12.61,53.56,6.45l17.2-85.29l1.11,0.22l-17.33,85.92l-0.3,0.11C219.37,368.26,210.55,369.32,201.48,368.24z"/>
		<path class="st27" d="M176.96,268.27l-1.09-0.28l0.49-1.9c0.12-0.46,0.27-1.03,0.68-1.47c0.83-0.89,2.18-0.74,2.9-0.65l11.8,1.37
			l-0.13,1.12l-11.8-1.37c-0.78-0.09-1.56-0.12-1.94,0.3c-0.22,0.24-0.32,0.63-0.41,0.99L176.96,268.27z"/>
		<path class="st27" d="M177.74,251.4c-0.98-0.12-1.56-1.15-1.51-1.79c0.07-1,0.76-1.96,1.81-2.49c0.88-0.45,1.85-0.57,2.76-0.65
			c4.3-0.39,8.63-0.14,12.86,0.74l-0.23,1.11c-4.12-0.85-8.34-1.09-12.53-0.72c-0.8,0.07-1.65,0.17-2.35,0.53
			c-0.69,0.35-1.16,0.97-1.2,1.57c0,0.1,0.19,0.56,0.52,0.6c0,0,0.01,0,0.01,0l-0.1,1.12C177.77,251.4,177.76,251.4,177.74,251.4z"
			/>
		<g>
			<path class="st27" d="M231.53,296.77c-16.77-3.78-34.37-7.5-51-3.96c-0.32,9.91,0.1,19.85,1.32,29.69l-1.12,0.14
				c-1.21-9.81-1.64-19.71-1.34-29.59c-1.27,0.3-2.53,0.62-3.78,1.01c0.19,20.23-1.13,40.67-0.85,60.9
				c6.96,4.75,14.39,6.8,23.81,8.55c8.28,1.54,18.39,0.59,26.77-0.22c3.92-9.53,4.89-20.58,6.95-30.68
				c2.21-10.82,4.64-21.66,6.85-32.49C237.19,298.1,234.28,297.39,231.53,296.77z M197.57,360.5c-7.06-0.84-13.96-2.91-20.21-6.15
				l0.52-1c3.54,1.84,7.3,3.28,11.17,4.34c0.34-4.01,0.79-8.06,1.34-12.04l1.12,0.16c-0.57,4.03-1.01,8.12-1.36,12.17
				c3.12,0.79,6.31,1.33,9.52,1.61c0.33-5.55,0.88-11.16,1.65-16.67l1.12,0.16c-0.77,5.49-1.32,11.07-1.64,16.6
				c2.7,0.18,5.42,0.19,8.11,0.01l1.48-12.38l1.12,0.13l-1.45,12.15c4.52-0.39,8.98-1.28,13.25-2.72l0.36,1.07
				C215.37,360.71,206.35,361.55,197.57,360.5z M226.68,334.62l-0.63,2.15l-0.62-2.92l0.31-0.07c2.07-7.2,3.62-14.61,4.6-22.04
				l1.12,0.15C230.46,319.55,228.85,327.2,226.68,334.62z M232.77,303.96c-4.16,1.87-9.81,2.77-15.1,2.43
				c-2.42-0.16-4.78-0.37-7.1-0.65c-9.58-1.15-18.33-3.33-26.58-6.61l0.42-1.05c10.13,4.03,21.03,6.38,33.33,7.18
				c5.12,0.33,10.57-0.54,14.57-2.33c0.6-0.27,1.35-0.66,1.79-1.28l0.92,0.65C234.42,303.14,233.5,303.63,232.77,303.96z"/>
			<path class="st27" d="M181.45,279.1l-1.12-0.12c-0.49,4.67-0.79,9.37-0.94,14.07c0.38-0.09,0.76-0.16,1.14-0.24
				C180.68,288.23,180.97,283.65,181.45,279.1z"/>
		</g>
		<path class="st27" d="M179.37,292.91c0.15-4.64,0.47-9.33,0.95-13.94l1.12,0.12c-0.48,4.58-0.8,9.24-0.95,13.86L179.37,292.91z"/>
		<path class="st27" d="M173.65,261.6c-0.12-1.31-0.05-2.63,0.2-3.92l1.11,0.21c-0.23,1.19-0.29,2.4-0.18,3.61L173.65,261.6z"/>
		<path class="st27" d="M207.99,279.18c-4.98-0.6-9.93-1.5-14.81-2.72l0.27-1.1c10.35,2.58,21.01,3.76,31.67,3.51l0.03,1.13
			C219.41,280.14,213.68,279.86,207.99,279.18z"/>
	</g>
	<g>
		<path class="st3" d="M5.29,137.95c0-9.82,10.87-24.17,16.32-28.69c9.23-7.64,20.12-13.9,32.05-15.08
			c11.14-1.1,22.21,2.3,32.71,6.19c6.38,2.36,12.83,5,17.92,9.51c5.09,4.51,8.65,11.28,7.67,18.01"/>
		<path class="st3" d="M30.81,80.78l-0.1-0.97c-0.23-2.17-0.43-4.48-0.62-6.71c-0.19-2.22-0.38-4.52-0.61-6.66
			c-0.3-2.81-0.67-6.31,0.68-9.38c1.03-2.32,2.86-4.02,4.64-5.66c1.27-1.18,2.48-2.29,3.39-3.61c2.9-4.17,2.57-9.75,1.93-15.58
			l-1.14-10.42c-0.12-1.12-0.79-4.79-4.25-5.06c-0.63-0.05-1.14,0.09-1.34,0.35c-0.18,0.23-0.25,0.65-0.32,1.1l-0.04,0.27
			c-0.68,3.99-3.55,7.12-6.43,9.98c-3.67,3.64-7.35,7.03-12.11,8.5C8.9,38.65,3.77,36.97,1.4,32.65L0,30.1l2.69,1.12
			c4.41,1.84,9.42-1.02,12.2-4.46c2.06-2.54,3.43-5.48,4.88-8.59c0.71-1.53,1.45-3.11,2.27-4.62c0.7-1.28,1.51-2.61,2.71-3.61
			c3.14-2.61,7.69-2,10.69-1.4c0.82-3.71,4.41-6.3,7.72-7.54c4.97-1.86,11.62-1.3,14.14,3.4c0.97,1.81,1.12,3.92,1.25,5.61
			c0.56,7.74,0.93,15.57,1.12,23.31c4.07,2.54,8.21,5.33,12.21,8.03c4.13,2.79,8.41,5.67,12.59,8.26
			c7.34,4.55,14.93,9.25,21.23,15.47l0.31,0.31l-0.01,0.44c-0.09,4.01-2.96,6.94-5.97,9.6l0.26,0.65l-0.9-0.15
			c-0.69,0.38-1.22,0.16-1.45,0.02c-0.15-0.09-0.27-0.21-0.36-0.34c-5.92-1.25-11.07-4.81-15.85-8.38c-1.85-1.38-3.75-2.79-5.38-4.5
			c-0.04,4.1,0.3,8.02,0.7,11.53l0.36-0.02l-0.11,2.15l-2.03,0.07c0-0.01,0-0.03-0.01-0.04c-7.09,0.49-14.22,1.31-21.12,2.11
			c-7.3,0.84-14.84,1.71-22.36,2.19L30.81,80.78z M34.49,14.68c0.13,0,0.27,0.01,0.4,0.02c3.34,0.26,5.69,2.9,6.12,6.87l1.14,10.42
			c0.68,6.23,1.02,12.21-2.29,16.97c-1.04,1.5-2.39,2.74-3.68,3.94c-1.7,1.57-3.3,3.05-4.16,4.99c-1.14,2.56-0.81,5.63-0.52,8.33
			c0.23,2.17,0.43,4.48,0.62,6.71c0.16,1.89,0.32,3.83,0.51,5.69c7.15-0.49,14.33-1.32,21.28-2.12c6.89-0.8,14.01-1.62,21.11-2.11
			c-0.5-4.33-0.89-9.27-0.62-14.44l0.15-2.94l1.7,2.4c1.75,2.47,4.27,4.35,6.71,6.17c4.72,3.52,9.79,7.03,15.49,8.1
			c0.02,0,0.05-0.01,0.07-0.01c0.12-0.01,0.24,0,0.36,0.03c2.59-2.3,4.8-4.6,5.06-7.5C97.87,60.3,90.52,55.75,83.4,51.34
			c-4.21-2.61-8.51-5.5-12.66-8.3c-3.66-2.47-7.43-5.01-11.15-7.36l-1.91,0.02c-0.17-8.47-0.56-17.07-1.17-25.55
			c-0.11-1.58-0.24-3.36-1.01-4.79c-1.97-3.68-7.46-4.01-11.62-2.45c-3.05,1.14-6.37,3.55-6.56,6.91l-0.07,1.19l-1.17-0.25
			C32.58,10,28.62,9.37,26.06,11.5c-0.94,0.78-1.62,1.91-2.22,3.01c-0.79,1.46-1.51,3.01-2.21,4.51c-1.44,3.09-2.93,6.28-5.14,9.02
			c-2.64,3.26-7.07,6.05-11.52,5.77c2.53,2.06,6.16,2.01,8.92,1.16c4.31-1.33,7.79-4.54,11.27-7.99c2.75-2.74,5.28-5.48,5.86-8.88
			l0.04-0.25c0.1-0.62,0.22-1.4,0.74-2.05C32.37,15.08,33.34,14.68,34.49,14.68z"/>
		<path class="st3" d="M38.31,343.3c-3.95,0-7.77-0.33-11.3-1.91c-4.45-1.99-6.63-3.83-6.99-8.93l0,0
			c-3.98-55.65-9.36-111.96-15.98-167.39c-1.46-12.25-3.29-27.51,3.04-40.01c2.8-5.54,7.26-10.73,14.01-16.33
			c11-9.11,21.96-14.26,32.6-15.31c11.3-1.11,22.62,2.34,33.17,6.24c6.33,2.34,12.96,5.02,18.24,9.71
			c5.83,5.17,8.89,12.33,8.02,18.74c11.28,54.96,15.45,105.05,19.87,158.08c0.83,10.01,1.7,20.36,2.6,30.65
			c2.1,2.89,0.63,7.56-2.15,10.24c-2.46,2.36-5.78,3.36-9.26,4.25c-28.28,7.23-56.25,11.24-83.13,11.92
			C40.13,343.29,39.22,343.3,38.31,343.3z M58.08,95.27c-1.39,0-2.79,0.06-4.18,0.2c-10.22,1.01-20.82,6-31.49,14.85
			c-6.53,5.41-10.82,10.39-13.49,15.67c-6.05,11.95-4.34,26.24-2.84,38.85c6.63,55.45,12,111.8,15.99,167.48
			c0.29,4.06,1.77,5.42,5.79,7.21c3.95,1.77,8.48,1.81,13.15,1.69c26.73-0.68,54.54-4.67,82.68-11.85c3.33-0.85,6.25-1.72,8.35-3.74
			c2.16-2.08,3.38-5.82,1.79-7.73l-0.21-0.25l-0.03-0.32c-0.92-10.39-1.79-20.85-2.63-30.96c-4.42-53.02-8.59-103.1-19.87-158.01
			l-0.04-0.18l0.03-0.18c0.85-5.79-1.96-12.34-7.33-17.1c-5.02-4.45-11.44-7.04-17.59-9.32C77.16,98.27,67.6,95.27,58.08,95.27z"/>
		<path class="st3" d="M10.25,210c13.27-1.64,74.85-12.35,113.03-11.85c4.31,13,4.92,26.78,5.09,40.47
			c0.02,1.75-0.06,3.69-1.26,4.96c-1.07,1.14-2.74,1.44-4.28,1.68c-37.09,5.64-70.54,9.48-107.97,12.04
			C14.43,240.81,12.95,226.26,10.25,210z"/>
		<path class="st3" d="M26.42,287.81c-3.25,0-6.5-0.03-9.75-0.1l0.13-6.12c37.21,0.8,74.46-3.03,110.74-11.36
			c2.64-0.06,4.25-0.72,6.08-1.52c1.03,0.96,1.46,2.37,1.11,3.68c-0.46,1.73-1.82,2.87-4.06,3.4
			C96.52,283.77,61.49,287.81,26.42,287.81z"/>
		<path class="st3" d="M57.99,314.27c-13.62,0-27.2-0.48-40.61-0.94l0.21-6.12c36.49,1.28,74.22,2.59,110.29-5.84
			c3.68-0.29,5.23-2.7,5.23-2.7c1.21,1.07,1.71,2.62,1.32,4.16c-0.58,2.3-3.03,4.01-5.16,4.51
			C105.82,312.81,81.84,314.27,57.99,314.27z"/>
		<path class="st3" d="M116.43,145.15c-34.16,7.99-68.03,11.76-103.11,11.76c-3.25,0-6.5-0.03-9.75-0.1l0.13-6.12
			c37.22,0.8,74.46-3.03,110.74-11.36 M115.72,139.92"/>
		<path class="st3" d="M44.9,183.37c-13.62,0-27.2-0.47-40.61-0.94l0.21-6.12c36.49,1.28,74.22,2.6,110.29-5.84
			c3.11-0.14,5.24-2.7,5.24-2.7c1.21,1.07,1.71,2.62,1.32,4.16c-0.58,2.3-3.03,4.01-5.16,4.51
			C92.73,181.92,68.74,183.37,44.9,183.37z"/>
		<path class="st3" d="M59.74,341.88c-13.63-66.37-27.99-139.01-27.49-208.21l6.12,0.04c-0.49,68.55,13.8,140.87,27.37,206.93
			L59.74,341.88z"/>
		<path class="st3" d="M92.95,336.7c-4.1-67.31-12.6-139.53-24.93-205.84l6.02-1.12c12.37,66.55,20.73,137.58,24.85,205.14
			L92.95,336.7z"/>
	</g>
	<text transform="matrix(1 0 0 1 186.9472 182.2574)" class="st3 st58 st59 st60">error</text>
	<text transform="matrix(1 0 0 1 297.5262 309.1942)" class="st6 st61 st62">404</text>
	<path class="st63" d="M108.01,81.58c21,16.57,40.87,34.58,59.42,53.86"/>
	<path class="st63" d="M108.01,72.99c26.24,5.22,34.14,7.36,59.42,16.11"/>
	<line class="st63" x1="131.94" y1="89.1" x2="153.98" y2="99.94"/>
</g>
</svg>
