<?xml version="1.0" encoding="utf-8"?>
<!-- Generator: Adobe Illustrator 25.4.1, SVG Export Plug-In . SVG Version: 6.00 Build 0)  -->
<svg version="1.1" id="Capa_1" xmlns="http://www.w3.org/2000/svg" xmlns:xlink="http://www.w3.org/1999/xlink" x="0px" y="0px"
	 viewBox="0 0 200.8 82.9" style="enable-background:new 0 0 200.8 82.9;" xml:space="preserve">
<style type="text/css">
	.st0{fill:#FFFFFF;}
</style>
<path class="st0" d="M200.8,54c-10.3,7.9-22.7,0.7-30-5c-7.4-6-16.4-9.5-25.9-10c-33.4-1.2-37.3,36.7-37.3,36.7s21.4-35.8,46.6-23.4
	c0,0,17.6,7.7,20.7,30.6c0,0,5.6-10.8-1.3-21.2C180,64.8,190.6,67.6,200.8,54z"/>
<path class="st0" d="M0,54c10.3,7.9,22.7,0.7,30-5c7.4-6,16.4-9.5,25.9-10c33.4-1.2,37.3,36.7,37.3,36.7S71.8,39.9,46.6,52.3
	c0,0-17.6,7.7-20.7,30.6c0,0-5.6-10.8,1.3-21.2C20.8,64.8,10.2,67.6,0,54z"/>
<path class="st0" d="M131.7,30.9c-11.8-2.3-22.6,12.4-29.1,24.1c-0.8,1.4-1.5,2.8-2.2,4.1c-0.6-1.3-1.4-2.7-2.2-4
	c-6.6-11.8-17.3-26.5-29.1-24.2c9.2-14.4,23.5-6.9,31.3,16.5C108.2,24,122.5,16.5,131.7,30.9z"/>
<path class="st0" d="M95.8,16.8C94.5,9.6,100.4,0,100.4,0s5.9,9.6,4.6,16.8c-0.3,2.5-2.7,4.3-5.2,4C97.7,20.5,96.1,18.9,95.8,16.8z"
	/>
</svg>
