<?xml version="1.0" encoding="utf-8"?>
<!-- Generator: Adobe Illustrator 25.4.1, SVG Export Plug-In . SVG Version: 6.00 Build 0)  -->
<svg version="1.1" id="Capa_1" xmlns="http://www.w3.org/2000/svg" xmlns:xlink="http://www.w3.org/1999/xlink" x="0px" y="0px"
	 viewBox="0 0 115 69.1" style="enable-background:new 0 0 115 69.1;" xml:space="preserve">
<style type="text/css">
	.st0{fill:#B22420;}
</style>
<polygon class="st0" points="76.1,23 56.8,0 38.5,24.1 58.1,47.2 "/>
<path class="st0" d="M103.4,24.8c-10.5,0.8-20.6,4.7-29,11C68.1,40.3,62.8,48,58.8,56.6C53.9,48.4,48.4,41.7,43,38.3
	c-5.2-4.2-11.1-6.3-16.3-8.6c-5.5-1-10-2.3-14-2.4C4.5,27.3,0,28.3,0,29.9c-0.2,3.8,16.4,3.4,35.1,15.4c6.9,4.2,13.6,12.1,19.7,21.4
	c2.6,5.1,6,0.4,6,0.4l3.7-4.7c4.8-7.7,9.9-13.8,14.6-17C96.4,30.7,115.6,31.1,115,27C114.8,25.5,110.9,24.8,103.4,24.8z"/>
</svg>
