<svg id="Capa_1" data-name="Capa 1" xmlns="http://www.w3.org/2000/svg" viewBox="0 0 136.59 343.3"><defs><style>.cls-1{fill:#a42420;}</style></defs><path class="cls-1" d="M14.48,36.93c4.76-1.47,8.45-4.86,12.11-8.5,2.88-2.86,5.75-6,6.43-10l0-.27a2.61,2.61,0,0,1,.32-1.1,1.57,1.57,0,0,1,1.34-.35c3.47.27,4.14,3.94,4.26,5.06l1.13,10.42c.64,5.83,1,11.4-1.93,15.58A22.87,22.87,0,0,1,34.8,51.4a18,18,0,0,0-4.64,5.66c-1.35,3.06-1,6.56-.68,9.38.23,2.14.42,4.44.61,6.66s.39,4.54.62,6.71l.1,1,1-.06c7.52-.48,15.06-1.35,22.36-2.19,6.9-.8,14-1.62,21.12-2.11v0l2-.07.11-2.15-.35,0a91.61,91.61,0,0,1-.71-11.53,43.29,43.29,0,0,0,5.39,4.5c4.78,3.56,9.93,7.13,15.85,8.37a1.1,1.1,0,0,0,.36.35,1.4,1.4,0,0,0,1.45,0l.89.15-.26-.64c3-2.65,5.89-5.59,6-9.6v-.44l-.31-.31C99.4,58.85,91.82,54.15,84.48,49.6,80.3,47,76,44.13,71.89,41.34s-8.14-5.48-12.21-8c-.2-7.75-.57-15.58-1.13-23.32a13.81,13.81,0,0,0-1.24-5.61C54.79-.31,48.14-.87,43.17,1c-3.31,1.24-6.9,3.83-7.72,7.54-3-.6-7.56-1.2-10.7,1.4A12.06,12.06,0,0,0,22,13.54c-.82,1.52-1.56,3.1-2.27,4.62a40,40,0,0,1-4.88,8.6c-2.78,3.44-7.79,6.3-12.2,4.46L0,30.1l1.4,2.55C3.77,37,8.9,38.65,14.48,36.93Zm2-8.89a42.49,42.49,0,0,0,5.14-9c.7-1.5,1.42-3.06,2.21-4.52a10.17,10.17,0,0,1,2.23-3c2.56-2.13,6.52-1.5,10-.74l1.17.25.07-1.2C37.52,6.46,40.84,4,43.88,2.9c4.17-1.55,9.66-1.22,11.63,2.46a12.28,12.28,0,0,1,1,4.79c.6,8.48,1,17.08,1.17,25.55l1.91,0C63.32,38,67.09,40.57,70.75,43c4.15,2.79,8.44,5.69,12.65,8.3,7.12,4.41,14.47,9,20.55,14.87-.26,2.89-2.47,5.2-5.06,7.5a1.42,1.42,0,0,0-.36,0h-.07c-5.7-1.07-10.78-4.58-15.49-8.1a29.47,29.47,0,0,1-6.71-6.17L74.56,57,74.4,60A87.49,87.49,0,0,0,75,74.39c-7.11.49-14.22,1.31-21.11,2.11s-14.14,1.63-21.28,2.12c-.19-1.86-.35-3.8-.51-5.69-.19-2.23-.39-4.54-.62-6.71-.29-2.71-.62-5.77.52-8.33a16.1,16.1,0,0,1,4.16-5A25.18,25.18,0,0,0,39.87,49c3.3-4.75,3-10.74,2.29-17L41,21.57c-.44-4-2.78-6.61-6.13-6.88h-.4a3.35,3.35,0,0,0-2.7,1.13,4.14,4.14,0,0,0-.74,2l0,.24c-.58,3.41-3.1,6.15-5.86,8.88-3.47,3.46-6.95,6.67-11.27,8-2.76.85-6.39.89-8.92-1.17C9.41,34.09,13.84,31.3,16.48,28Z"/><path class="cls-1" d="M135.6,316.86c-.41-4.64-.81-9.29-1.2-13.92,0,0,0-.08,0-.13a4.08,4.08,0,0,0-.29-2.82c-.39-4.63-.78-9.24-1.15-13.78q-.47-5.47-.91-10.9a4.38,4.38,0,0,0,2.65-2.93,3.74,3.74,0,0,0-1.11-3.68c-.69.3-1.34.58-2,.82-1-12.37-2.13-24.62-3.34-36.86a138.25,138.25,0,0,0-2.89-27c-1.28-10.87-2.71-21.8-4.36-32.84a4.73,4.73,0,0,0,.34-.91,4.11,4.11,0,0,0-1.07-3.9q-1.75-11.33-3.86-22.86h0l0-.09c-1-5.6-2.1-11.23-3.27-16.93.86-6.41-2.2-13.57-8-18.74C99.82,104.7,93.2,102,86.87,99.68,76.32,95.78,65,92.33,53.7,93.44c-10.63,1-21.6,6.2-32.6,15.3-6.76,5.6-11.21,10.79-14,16.33-6.33,12.5-4.51,27.76-3,40q.66,5.63,1.31,11.26l-.86,0-.21,6.12,1.78.06c4.74,41.39,8.77,83.18,12.05,124.73l-.53,0-.21,6.12,1.22.05q.73,9.56,1.42,19.1c.37,5.1,2.55,6.94,7,8.93,3.54,1.58,7.35,1.9,11.3,1.9.91,0,1.82,0,2.74,0a375.63,375.63,0,0,0,83.13-11.91c3.48-.89,6.81-1.89,9.27-4.25C136.23,324.42,137.69,319.75,135.6,316.86Zm-76.43-8.72q-2.09-10.56-4.09-21.24,17-1.06,33.8-3.39,1.08,11.78,2,23.44C80.33,307.79,69.74,308.12,59.17,308.14Zm32.17,4.91q.87,11.54,1.57,22.92-13.8,2.4-27.36,3.72Q63,327.12,60.38,314.26C70.7,314.22,81,313.88,91.34,313.05ZM15.86,257.22c9.33-.65,18.42-1.37,27.38-2.18q2.15,13.13,4.54,26.12-14.85.7-29.73.43Q17,269.41,15.86,257.22Zm33.49-2.75c12.14-1.17,24.1-2.5,36.18-4q1.48,13.5,2.77,27Q71.2,279.78,54,280.83,51.55,267.72,49.35,254.47Zm-11-119.64L68.23,132c.93,5,1.82,10,2.7,15.08q-16.14,2.07-32.39,3Q38.35,142.43,38.37,134.83ZM72,153.21q1.94,11.41,3.73,23c-11.92.88-23.9,1.11-35.84,1q-.77-10.53-1.15-21Q55.46,155.33,72,153.21ZM44.9,183.37c10.58,0,21.18-.28,31.75-1.08q1.39,9.17,2.67,18.41c-12.88,1.34-25.69,3-36.85,4.6q-1.23-11-2.12-22C41.86,183.35,43.38,183.37,44.9,183.37Zm37.87-1.61a248.42,248.42,0,0,0,33.41-5.33,8,8,0,0,0,3.07-1.51q1.73,11.69,3.16,23.21c-11-.09-23.9.72-37,2Q84.14,190.91,82.77,181.76ZM94.92,282.64q17.7-2.67,35.17-6.73l.87,10.47q.56,6.6,1.12,13.36a7.46,7.46,0,0,1-4.2,1.62,240.47,240.47,0,0,1-31,5Q96,294.57,94.92,282.64Zm32.62-12.42q-16.47,3.78-33.2,6.32-1.26-13.41-2.74-26.87c10.23-1.33,20.58-2.8,31.24-4.42,1.54-.23,3.21-.53,4.28-1.67a1.67,1.67,0,0,0,.12-.16q1.23,13.25,2.35,26.6A13.7,13.7,0,0,1,127.54,270.22Zm-9.14-101a7.07,7.07,0,0,1-3.61,1.29,245,245,0,0,1-32.95,5.23Q80,164,78.06,152.38q18.19-2.61,36.36-6.77Q116.6,157.51,118.4,169.18Zm-5.09-29.6q-18,4.08-36.3,6.68-1.31-7.44-2.66-14.82L111.09,128a.08.08,0,0,1,0,0l0,.18,0,.17C111.87,132.13,112.6,135.86,113.31,139.58Zm-108-2c0,.12,0,.24,0,.36l27-2.54q0,7.46.17,15-13.83.59-27.68.32A65.9,65.9,0,0,1,5.3,137.59Zm.77,27.25c-.31-2.61-.63-5.3-.88-8,2.71,0,5.42.08,8.13.08q9.7,0,19.29-.39.38,10.29,1.12,20.63c-8.81-.15-17.59-.44-26.31-.74C7,172.55,6.53,168.69,6.07,164.84ZM34.2,183.28q.91,11.43,2.2,22.88c-11.45,1.67-20.56,3.1-25.25,3.72q-1.45-13.68-3-27.32C16.77,182.86,25.47,183.14,34.2,183.28ZM18.58,287.72c2.61,0,5.22.09,7.84.09q11.25,0,22.49-.57,2,10.5,4,20.88c-11-.09-21.91-.45-32.75-.83Q19.41,297.51,18.58,287.72ZM41,341.22c-4.68.12-9.2.08-13.15-1.69s-5.5-3.15-5.79-7.21q-.68-9.44-1.41-18.88c11.08.38,22.26.73,33.48.8q2.63,13.13,5.28,26C53.22,340.73,47.08,341.07,41,341.22Zm91-15.59c-2.1,2-5,2.89-8.35,3.74q-12.45,3.18-24.81,5.52h0q-.67-11.13-1.52-22.37a249.79,249.79,0,0,0,31.91-5.18,8.17,8.17,0,0,0,3.3-1.71q.49,5.85,1,11.72l0,.32.2.24C135.42,319.81,134.19,323.55,132,325.63Z"/></svg>