<svg id="Capa_1" data-name="Capa 1" xmlns="http://www.w3.org/2000/svg" viewBox="0 0 260.32 159.76"><defs><style>.cls-1{fill:#a42420;}</style></defs><path class="cls-1" d="M259.07,120.69c-2.2-5.5-7-9.74-11.68-13.16-9.2-6.73-19.94-11-30.14-15.92L215.93,91l-.76-.39-.49-.27-1-.57c-.15-.1-.32-.19-.49-.28.35-1.6.7-3.2,1-4.8,1.6-8.05,4.16-15.88,4.78-24.1.06-.83.09-1.67.1-2.51l.09-.39a25,25,0,0,0-.19-11,23.79,23.79,0,0,0-4.26-8.16c-3.9-5.12-9.22-9.16-14.6-12.62a169.91,169.91,0,0,0-16.81-9.43A165.72,165.72,0,0,0,136.64,1.65,108.46,108.46,0,0,0,110.26.3,45.93,45.93,0,0,0,98.52,2.49a26,26,0,0,0-8.65,5.19,39.17,39.17,0,0,0-6,7.2c-2.23,3.25-4.25,6.64-6.14,10.08q-2.28,4.16-4.3,8.42a5.58,5.58,0,0,0-.68-.16C62,31.62,51.31,29.45,40.38,29.43c-9.85,0-20.24,1.81-28.22,7.92C5.8,42.22,2.21,49.59.73,57.32A45.41,45.41,0,0,0,.14,69.19a33.85,33.85,0,0,0,1.58,8.29,37.18,37.18,0,0,0,3.45,7.23,81.42,81.42,0,0,0,8.51,11.16c2.45,2.84,5,5.62,7.63,8.26a151.29,151.29,0,0,0,16.84,14.2,198,198,0,0,0,40.09,22.29,248.41,248.41,0,0,0,46.48,14.25,239.49,239.49,0,0,0,48.21,4.89,183.91,183.91,0,0,0,45.77-5.64,133.61,133.61,0,0,0,20.41-7q4.81-2.12,9.41-4.65a26,26,0,0,0,8.08-6.37,16.46,16.46,0,0,0,3.57-7.65A14.74,14.74,0,0,0,259.07,120.69ZM151.91,14.41ZM92.54,19.6c.39-.59.8-1.17,1.2-1.74l.06-.08.11-.16.7-.89a27,27,0,0,1,2.71-2.94,4.07,4.07,0,0,0,.63-.55,19.38,19.38,0,0,1,1.7-1.14c.26-.16.52-.3.78-.44a6.45,6.45,0,0,0,.95-.42c.35-.14.71-.27,1.07-.39.66-.22,1.32-.41,2-.57l.17,0a11.25,11.25,0,0,0,1.52-.27q3-.48,6.09-.67t6.14-.19h1.42l.83,0c1,0,2,.1,3,.17a142.65,142.65,0,0,1,23.68,3.89l2.58.65,1.29.34.76.21.13,0c1.87.54,3.74,1.1,5.59,1.7q5.59,1.82,11,4a163.48,163.48,0,0,1,18.46,8.94l.82.46h0l2,1.16c1.28.76,2.54,1.54,3.8,2.35a73.76,73.76,0,0,1,7.4,5.41c.54.45,1.06.91,1.58,1.38a4.59,4.59,0,0,0,.71.68l.37.38a32.21,32.21,0,0,1,2.78,3.27c.37.51.72,1,1.07,1.57l0,0c.19.36.39.72.56,1.09a16.28,16.28,0,0,1,.69,1.67l.26.78c0,.17.09.44.1.47a16.72,16.72,0,0,1,.2,2c0,.34,0,.69,0,1,0,.17,0,.35,0,.52h0c-.06.54-.14,1.07-.22,1.6a2.07,2.07,0,0,0-.41,1.45l0,.61c-.07.35-.13.71-.22,1.06-.39,1.62-.87,3.21-1.4,4.79-.24.73-.5,1.46-.76,2.19-.13.36-.26.72-.4,1.08l0,.11-.14.37c-1.16,3.07-2.41,6.13-3.4,9.27-1.21,3.87-2.16,7.81-3.1,11.75s-1.88,7.89-3,11.77c-.29,1-.59,1.94-.91,2.9-.15.44-.3.88-.46,1.32l-.24.66s0,.06,0,.09c-.24.62-.48,1.24-.67,1.88-.44,1.53-.67,3.11-1,4.67a1.6,1.6,0,0,1,0,.21,5.46,5.46,0,0,0-.57,0c-14.76-.53-29.53,1.39-44.26-.11a170.74,170.74,0,0,1-22-4.47c-7-1.87-14.16-3.85-21-6.35A94.89,94.89,0,0,1,84.16,88c-4.63-3.53-9.11-7.25-13.65-10.9a10.76,10.76,0,0,0-4.23-2.23c.8-1.36,1.59-2.73,2.34-4.12a71,71,0,0,0,3.65-8.51C77.89,47.57,83.77,32.77,92.54,19.6ZM245.71,132.5Zm5.72-8,0,.09,0,.19c-.08.61-.08.1,0-.17a10.28,10.28,0,0,0-.37,1.28,13.34,13.34,0,0,1-.74,1.58c0,.07-.16.29-.26.46l-.31.44a18.9,18.9,0,0,1-1.33,1.63c-.49.55-1,1.06-1.55,1.56l-.83.74c-.1.1-.21.19-.32.28l-.19.12c-1.48.85-3,1.7-4.47,2.51a123.5,123.5,0,0,1-18.84,8c-1.7.56-3.4,1.09-5.12,1.59l-2.38.67-1.19.32-.61.16-.38.09q-5.12,1.26-10.31,2.21a182.43,182.43,0,0,1-22.12,2.54c-3.73.21-7.48.31-11.22.32-1.94,0-3.89,0-5.83-.08l-2.85-.09-1.08-.05-1,0q-11.67-.62-23.22-2.4c-7.68-1.18-15.31-2.72-22.84-4.61q-2.8-.71-5.58-1.47l-2.78-.79-.26-.07-.23-.07-1.62-.49q-5.56-1.68-11-3.64a223,223,0,0,1-20.92-8.67c-1.71-.81-3.4-1.64-5.09-2.5l-2.29-1.19-.17-.08-.12-.07L60.49,124q-4.71-2.58-9.28-5.42t-8.87-5.91c-1.43-1-2.86-2.08-4.26-3.15-.63-.49-1.27-1-1.89-1.48l-.27-.22-1-.79A126.88,126.88,0,0,1,20.7,93.35L20,92.59c.22.26.52.61,0,0l-.14-.16-.06-.06,0,0c-.12-.13-.24-.27-.35-.41-.79-.91-1.57-1.83-2.33-2.76-1.45-1.76-2.86-3.57-4.13-5.46q-.45-.67-.87-1.35a2.26,2.26,0,0,0-.16-.26L12,82c0-.07-.09-.15-.14-.23l.1.17-.06-.1a33.89,33.89,0,0,1-1.53-3.22c-.17-.4-.32-.81-.46-1.22l-.14-.48c-.07-.25-.14-.51-.2-.77A29.48,29.48,0,0,1,9,72.63v0c0-.22,0-.44,0-.66,0-.47-.05-.93-.07-1.4,0-1,0-2.07,0-3.11a44,44,0,0,1,.59-5.83c.06-.34.13-.69.2-1,0-.08.17-.72.21-.85.23-.93.51-1.85.82-2.75a30.39,30.39,0,0,1,2.16-4.84c.2-.36.41-.71.62-1.07l.05-.07c.09-.15.18-.29.28-.43.53-.76,1.09-1.49,1.69-2.19a27.08,27.08,0,0,1,3.95-3.77l.51-.38.27-.19.28-.19.69-.44c.8-.49,1.63-.94,2.48-1.35a36.92,36.92,0,0,1,6.18-2.27c9.81-2.71,20.07-1.71,30-.26,3.39.49,6.76,1,10.13,1.59q-1.33,3.12-2.61,6.26c-1.54,3.82-3,7.67-4.5,11.52a67.86,67.86,0,0,1-3.79,8.65C55.91,73.28,52.24,78.74,50,85a19.52,19.52,0,0,0-1.33,8.58,1.39,1.39,0,0,0,.17.87,4.74,4.74,0,0,0,2.26,2.68c4.16,4.41,9.44,7.83,14.68,10.76A206.82,206.82,0,0,0,87.45,118a303.22,303.22,0,0,0,49.1,15.67c7.79,1.75,15.65,3.44,23.56,4.54,8.49,1.17,17.31,1.63,25.76-.05,4-.79,7.92-1.95,11.23-4.43a20.67,20.67,0,0,0,5.8-7.16c2.65-5.07,3.56-10.83,5.11-16.28,1.28-4.48,2.46-9,3.55-13.47a106.7,106.7,0,0,0,11.19,5.54c2.43,1.12,4.85,2.25,7.26,3.43q2,.95,3.9,2l.89.47,0,0,0,0c.63.33,1.25.68,1.87,1a81.53,81.53,0,0,1,7.16,4.47c.5.35,1,.72,1.5,1.09l.56.44.14.11a34.56,34.56,0,0,1,2.66,2.47l.45.49c.33.43.67.84,1,1.28l.36.55c.2.41.41.81.58,1.23,0-.09,0-.16-.06-.27a3.47,3.47,0,0,0,.13.46.31.31,0,0,1,0,.08l0,.11s0,.06,0,.09v0c.08.39.1.81.2,1.19,0,.2,0,.4,0,.6s0,.46-.06.68c0,.06,0,.11,0,.16Z"/><path class="cls-1" d="M19.93,92.46l.11.13-.14-.16Z"/><path class="cls-1" d="M251.39,124.54h0v0Z"/><path class="cls-1" d="M11.91,81.93,12,82a2,2,0,0,1,.11.2C12.1,82.25,12.08,82.21,11.91,81.93Z"/><path class="cls-1" d="M251.29,121.91v0s0-.12-.05-.2a.31.31,0,0,0,0-.08s0-.1-.05-.15,0,0,0,0C251.27,122,251.31,122.05,251.29,121.91Z"/></svg>